<svg width="307" height="153" viewBox="0 0 307 153" fill="none" xmlns="http://www.w3.org/2000/svg">
<path d="M305 76.5C305 117.609 271.01 151 229 151C186.99 151 153 117.609 153 76.5C153 35.3912 186.99 2 229 2C271.01 2 305 35.3912 305 76.5Z" stroke="black" stroke-width="4"/>
<path d="M232 76.5C232 117.609 198.01 151 156 151C113.99 151 80 117.609 80 76.5C80 35.3912 113.99 2 156 2C198.01 2 232 35.3912 232 76.5Z" fill="#7FBC8C" stroke="black" stroke-width="4"/>
<path d="M154 76.5C154 117.609 120.01 151 78 151C35.9896 151 2 117.609 2 76.5C2 35.3912 35.9896 2 78 2C120.01 2 154 35.3912 154 76.5Z" stroke="black" stroke-width="4"/>
<line x1="2.99134" y1="75" x2="233.991" y2="74" stroke="black" stroke-width="4"/>
<path d="M232.5 4V150" stroke="black" stroke-width="4"/>
</svg>
